<?xml version="1.0" encoding="UTF-8"?>
<svg id="_Слой_1" data-name=" Слой 1" xmlns="http://www.w3.org/2000/svg" viewBox="0 0 814.31 549.18">
  <defs>
    <style>
      .cls-1 {
        fill: #ccc;
      }

      .cls-1, .cls-2, .cls-3, .cls-4, .cls-5, .cls-6, .cls-7, .cls-8, .cls-9, .cls-10 {
        stroke-width: 0px;
      }

      .cls-11 {
        font-size: 8.67px;
      }

      .cls-11, .cls-12, .cls-2, .cls-13 {
        fill: #000;
      }

      .cls-11, .cls-12, .cls-14, .cls-13 {
        isolation: isolate;
      }

      .cls-11, .cls-12, .cls-13 {
        font-family: CascadiaMono-Roman, 'Cascadia Mono';
        font-variation-settings: 'wght' 400;
      }

      .cls-12 {
        font-size: 7px;
      }

      .cls-3 {
        fill: #c1272d;
      }

      .cls-4 {
        fill: #e3bde8;
      }

      .cls-15 {
        fill: none;
      }

      .cls-15, .cls-16, .cls-17 {
        stroke: #000;
        stroke-miterlimit: 10;
      }

      .cls-5 {
        fill: #e2e2ff;
      }

      .cls-6, .cls-16, .cls-17 {
        fill: #fcee5b;
      }

      .cls-7 {
        fill: #b2b2ff;
      }

      .cls-8 {
        fill: #39b54a;
      }

      .cls-16 {
        stroke-width: .75px;
      }

      .cls-9 {
        fill: #fff;
      }

      .cls-10 {
        fill: #826adf;
      }

      .cls-13 {
        font-size: 9.5px;
      }
    </style>
  </defs>
  <g>
    <g>
      <rect class="cls-5" x="669.9" y="167.17" width="54" height="327.89"/>
      <g>
        <polygon class="cls-5" points="783.58 490.77 783.9 490.56 783.58 490.35 783.58 490.77"/>
        <polygon class="cls-5" points="610.22 490.35 609.9 490.56 610.22 490.77 610.22 490.35"/>
        <polygon class="cls-5" points="612.52 492.32 696.9 549.17 781.28 492.32 612.52 492.32"/>
      </g>
    </g>
    <g>
      <rect class="cls-5" x="89.4" y="167.18" width="54" height="327.89"/>
      <g>
        <polygon class="cls-5" points="203.07 490.78 203.4 490.57 203.07 490.36 203.07 490.78"/>
        <polygon class="cls-5" points="29.72 490.36 29.4 490.57 29.72 490.78 29.72 490.36"/>
        <polygon class="cls-5" points="32.02 492.33 116.4 549.18 200.78 492.33 32.02 492.33"/>
      </g>
    </g>
    <rect class="cls-5" x="89.04" y="119.1" width="634.82" height="54" transform="translate(-.79 2.22) rotate(-.31)"/>
    <g>
      <g>
        <rect class="cls-3" x="105.9" y="213.81" width="21" height="11"/>
        <path class="cls-2" d="M126.4,214.31v10h-20v-10h20M127.4,213.31h-22v12h22v-12h0Z"/>
      </g>
      <g>
        <rect class="cls-3" x="105.9" y="230.81" width="21" height="11"/>
        <path class="cls-2" d="M126.4,231.31v10h-20v-10h20M127.4,230.31h-22v12h22v-12h0Z"/>
      </g>
      <g>
        <rect class="cls-3" x="105.9" y="247.81" width="21" height="11"/>
        <path class="cls-2" d="M126.4,248.31v10h-20v-10h20M127.4,247.31h-22v12h22v-12h0Z"/>
      </g>
    </g>
    <g>
      <g>
        <rect class="cls-3" x="105.9" y="493.81" width="21" height="11"/>
        <path class="cls-2" d="M126.4,494.31v10h-20v-10h20M127.4,493.31h-22v12h22v-12h0Z"/>
      </g>
      <g>
        <rect class="cls-3" x="105.9" y="510.81" width="21" height="11"/>
        <path class="cls-2" d="M126.4,511.31v10h-20v-10h20M127.4,510.31h-22v12h22v-12h0Z"/>
      </g>
      <g>
        <rect class="cls-3" x="105.9" y="527.81" width="21" height="11"/>
        <path class="cls-2" d="M126.4,528.31v10h-20v-10h20M127.4,527.31h-22v12h22v-12h0Z"/>
      </g>
    </g>
    <g>
      <g>
        <rect class="cls-17" x="686.4" y="213.81" width="21" height="11"/>
        <path class="cls-17" d="M706.9,214.31v10h-20v-10h20M707.9,213.31h-22v12h22v-12h0Z"/>
      </g>
      <g>
        <rect class="cls-17" x="686.4" y="230.81" width="21" height="11"/>
        <path class="cls-17" d="M706.9,231.31v10h-20v-10h20M707.9,230.31h-22v12h22v-12h0Z"/>
      </g>
      <g>
        <rect class="cls-17" x="686.4" y="247.81" width="21" height="11"/>
        <path class="cls-17" d="M706.9,248.31v10h-20v-10h20M707.9,247.31h-22v12h22v-12h0Z"/>
      </g>
    </g>
    <g>
      <g>
        <rect class="cls-17" x="686.4" y="493.81" width="21" height="11"/>
        <path class="cls-17" d="M706.9,494.31v10h-20v-10h20M707.9,493.31h-22v12h22v-12h0Z"/>
      </g>
      <g>
        <rect class="cls-17" x="686.4" y="510.81" width="21" height="11"/>
        <path class="cls-17" d="M706.9,511.31v10h-20v-10h20M707.9,510.31h-22v12h22v-12h0Z"/>
      </g>
      <g>
        <rect class="cls-17" x="686.4" y="527.81" width="21" height="11"/>
        <path class="cls-17" d="M706.9,528.31v10h-20v-10h20M707.9,527.31h-22v12h22v-12h0Z"/>
      </g>
    </g>
  </g>
  <g>
    <rect class="cls-8" x="263.91" y="21.43" width="21" height="11"/>
    <path class="cls-2" d="M284.41,21.93v10h-20v-10h20M285.41,20.93h-22v12h22v-12h0Z"/>
  </g>
  <g>
    <rect class="cls-8" x="263.91" y="39.43" width="21" height="11"/>
    <path class="cls-2" d="M284.41,39.93v10h-20v-10h20M285.41,38.93h-22v12h22v-12h0Z"/>
  </g>
  <g>
    <rect class="cls-8" x="263.91" y="57.43" width="21" height="11"/>
    <path class="cls-2" d="M284.41,57.93v10h-20v-10h20M285.41,56.93h-22v12h22v-12h0Z"/>
  </g>
  <g>
    <rect class="cls-8" x="263.91" y="75.43" width="21" height="11"/>
    <path class="cls-2" d="M284.41,75.93v10h-20v-10h20M285.41,74.93h-22v12h22v-12h0Z"/>
  </g>
  <g>
    <rect class="cls-8" x="263.91" y="93.43" width="21" height="11"/>
    <path class="cls-2" d="M284.41,93.93v10h-20v-10h20M285.41,92.93h-22v12h22v-12h0Z"/>
  </g>
  <g>
    <rect class="cls-8" x="263.91" y="111.43" width="21" height="11"/>
    <path class="cls-2" d="M284.41,111.93v10h-20v-10h20M285.41,110.93h-22v12h22v-12h0Z"/>
  </g>
  <g>
    <rect class="cls-8" x="263.91" y="129.43" width="21" height="11"/>
    <path class="cls-2" d="M284.41,129.93v10h-20v-10h20M285.41,128.93h-22v12h22v-12h0Z"/>
  </g>
  <g>
    <rect class="cls-8" x="263.91" y="147.43" width="21" height="11"/>
    <path class="cls-2" d="M284.41,147.93v10h-20v-10h20M285.41,146.93h-22v12h22v-12h0Z"/>
  </g>
  <g>
    <rect class="cls-8" x="293.91" y="21.43" width="21" height="11"/>
    <path class="cls-2" d="M314.41,21.93v10h-20v-10h20M315.41,20.93h-22v12h22v-12h0Z"/>
  </g>
  <g>
    <rect class="cls-8" x="293.91" y="39.43" width="21" height="11"/>
    <path class="cls-2" d="M314.41,39.93v10h-20v-10h20M315.41,38.93h-22v12h22v-12h0Z"/>
  </g>
  <g>
    <rect class="cls-8" x="293.91" y="57.43" width="21" height="11"/>
    <path class="cls-2" d="M314.41,57.93v10h-20v-10h20M315.41,56.93h-22v12h22v-12h0Z"/>
  </g>
  <g>
    <rect class="cls-8" x="293.91" y="75.43" width="21" height="11"/>
    <path class="cls-2" d="M314.41,75.93v10h-20v-10h20M315.41,74.93h-22v12h22v-12h0Z"/>
  </g>
  <g>
    <rect class="cls-8" x="293.91" y="93.43" width="21" height="11"/>
    <path class="cls-2" d="M314.41,93.93v10h-20v-10h20M315.41,92.93h-22v12h22v-12h0Z"/>
  </g>
  <g>
    <rect class="cls-8" x="293.91" y="111.43" width="21" height="11"/>
    <path class="cls-2" d="M314.41,111.93v10h-20v-10h20M315.41,110.93h-22v12h22v-12h0Z"/>
  </g>
  <g>
    <rect class="cls-8" x="293.91" y="129.43" width="21" height="11"/>
    <path class="cls-2" d="M314.41,129.93v10h-20v-10h20M315.41,128.93h-22v12h22v-12h0Z"/>
  </g>
  <g>
    <rect class="cls-8" x="293.91" y="147.43" width="21" height="11"/>
    <path class="cls-2" d="M314.41,147.93v10h-20v-10h20M315.41,146.93h-22v12h22v-12h0Z"/>
  </g>
  <g>
    <rect class="cls-3" x="323.91" y="21.43" width="21" height="11"/>
    <path class="cls-2" d="M344.41,21.93v10h-20v-10h20M345.41,20.93h-22v12h22v-12h0Z"/>
  </g>
  <g>
    <rect class="cls-3" x="323.91" y="39.43" width="21" height="11"/>
    <path class="cls-2" d="M344.41,39.93v10h-20v-10h20M345.41,38.93h-22v12h22v-12h0Z"/>
  </g>
  <g>
    <rect class="cls-3" x="323.91" y="57.43" width="21" height="11"/>
    <path class="cls-2" d="M344.41,57.93v10h-20v-10h20M345.41,56.93h-22v12h22v-12h0Z"/>
  </g>
  <g>
    <rect class="cls-8" x="323.91" y="75.43" width="21" height="11"/>
    <path class="cls-2" d="M344.41,75.93v10h-20v-10h20M345.41,74.93h-22v12h22v-12h0Z"/>
  </g>
  <g>
    <rect class="cls-8" x="323.91" y="93.43" width="21" height="11"/>
    <path class="cls-2" d="M344.41,93.93v10h-20v-10h20M345.41,92.93h-22v12h22v-12h0Z"/>
  </g>
  <g>
    <rect class="cls-8" x="323.91" y="111.43" width="21" height="11"/>
    <path class="cls-2" d="M344.41,111.93v10h-20v-10h20M345.41,110.93h-22v12h22v-12h0Z"/>
  </g>
  <g>
    <rect class="cls-8" x="323.91" y="129.43" width="21" height="11"/>
    <path class="cls-2" d="M344.41,129.93v10h-20v-10h20M345.41,128.93h-22v12h22v-12h0Z"/>
  </g>
  <g>
    <rect class="cls-8" x="323.91" y="147.43" width="21" height="11"/>
    <path class="cls-2" d="M344.41,147.93v10h-20v-10h20M345.41,146.93h-22v12h22v-12h0Z"/>
  </g>
  <g>
    <rect class="cls-3" x="353.91" y="21.43" width="21" height="11"/>
    <path class="cls-2" d="M374.41,21.93v10h-20v-10h20M375.41,20.93h-22v12h22v-12h0Z"/>
  </g>
  <g>
    <rect class="cls-3" x="353.91" y="39.43" width="21" height="11"/>
    <path class="cls-2" d="M374.41,39.93v10h-20v-10h20M375.41,38.93h-22v12h22v-12h0Z"/>
  </g>
  <g>
    <rect class="cls-3" x="353.91" y="57.43" width="21" height="11"/>
    <path class="cls-2" d="M374.41,57.93v10h-20v-10h20M375.41,56.93h-22v12h22v-12h0Z"/>
  </g>
  <g>
    <rect class="cls-3" x="353.91" y="75.43" width="21" height="11"/>
    <path class="cls-2" d="M374.41,75.93v10h-20v-10h20M375.41,74.93h-22v12h22v-12h0Z"/>
  </g>
  <g>
    <rect class="cls-3" x="353.91" y="93.43" width="21" height="11"/>
    <path class="cls-2" d="M374.41,93.93v10h-20v-10h20M375.41,92.93h-22v12h22v-12h0Z"/>
  </g>
  <g>
    <rect class="cls-3" x="353.91" y="111.43" width="21" height="11"/>
    <path class="cls-2" d="M374.41,111.93v10h-20v-10h20M375.41,110.93h-22v12h22v-12h0Z"/>
  </g>
  <g>
    <rect class="cls-3" x="353.91" y="129.43" width="21" height="11"/>
    <path class="cls-2" d="M374.41,129.93v10h-20v-10h20M375.41,128.93h-22v12h22v-12h0Z"/>
  </g>
  <g>
    <rect class="cls-3" x="353.91" y="147.43" width="21" height="11"/>
    <path class="cls-2" d="M374.41,147.93v10h-20v-10h20M375.41,146.93h-22v12h22v-12h0Z"/>
  </g>
  <g>
    <rect class="cls-3" x="383.91" y="21.43" width="21" height="11"/>
    <path class="cls-2" d="M404.41,21.93v10h-20v-10h20M405.41,20.93h-22v12h22v-12h0Z"/>
  </g>
  <g>
    <rect class="cls-3" x="383.91" y="39.43" width="21" height="11"/>
    <path class="cls-2" d="M404.41,39.93v10h-20v-10h20M405.41,38.93h-22v12h22v-12h0Z"/>
  </g>
  <g>
    <rect class="cls-3" x="383.91" y="57.43" width="21" height="11"/>
    <path class="cls-2" d="M404.41,57.93v10h-20v-10h20M405.41,56.93h-22v12h22v-12h0Z"/>
  </g>
  <g>
    <rect class="cls-3" x="383.91" y="75.43" width="21" height="11"/>
    <path class="cls-2" d="M404.41,75.93v10h-20v-10h20M405.41,74.93h-22v12h22v-12h0Z"/>
  </g>
  <g>
    <rect class="cls-3" x="383.91" y="93.43" width="21" height="11"/>
    <path class="cls-2" d="M404.41,93.93v10h-20v-10h20M405.41,92.93h-22v12h22v-12h0Z"/>
  </g>
  <g>
    <rect class="cls-3" x="383.91" y="111.43" width="21" height="11"/>
    <path class="cls-2" d="M404.41,111.93v10h-20v-10h20M405.41,110.93h-22v12h22v-12h0Z"/>
  </g>
  <g>
    <rect class="cls-3" x="383.91" y="129.43" width="21" height="11"/>
    <path class="cls-2" d="M404.41,129.93v10h-20v-10h20M405.41,128.93h-22v12h22v-12h0Z"/>
  </g>
  <g>
    <rect class="cls-3" x="383.91" y="147.43" width="21" height="11"/>
    <path class="cls-2" d="M404.41,147.93v10h-20v-10h20M405.41,146.93h-22v12h22v-12h0Z"/>
  </g>
  <g>
    <rect class="cls-3" x="413.91" y="21.43" width="21" height="11"/>
    <path class="cls-2" d="M434.41,21.93v10h-20v-10h20M435.41,20.93h-22v12h22v-12h0Z"/>
  </g>
  <g>
    <rect class="cls-3" x="413.91" y="39.43" width="21" height="11"/>
    <path class="cls-2" d="M434.41,39.93v10h-20v-10h20M435.41,38.93h-22v12h22v-12h0Z"/>
  </g>
  <g>
    <rect class="cls-6" x="413.91" y="57.43" width="21" height="11"/>
    <path class="cls-2" d="M434.41,57.93v10h-20v-10h20M435.41,56.93h-22v12h22v-12h0Z"/>
  </g>
  <g>
    <rect class="cls-6" x="413.91" y="75.43" width="21" height="11"/>
    <path class="cls-2" d="M434.41,75.93v10h-20v-10h20M435.41,74.93h-22v12h22v-12h0Z"/>
  </g>
  <g>
    <rect class="cls-6" x="413.91" y="93.43" width="21" height="11"/>
    <path class="cls-2" d="M434.41,93.93v10h-20v-10h20M435.41,92.93h-22v12h22v-12h0Z"/>
  </g>
  <g>
    <rect class="cls-6" x="413.91" y="111.43" width="21" height="11"/>
    <path class="cls-2" d="M434.41,111.93v10h-20v-10h20M435.41,110.93h-22v12h22v-12h0Z"/>
  </g>
  <g>
    <rect class="cls-6" x="413.91" y="129.43" width="21" height="11"/>
    <path class="cls-2" d="M434.41,129.93v10h-20v-10h20M435.41,128.93h-22v12h22v-12h0Z"/>
  </g>
  <g>
    <rect class="cls-6" x="413.91" y="147.43" width="21" height="11"/>
    <path class="cls-2" d="M434.41,147.93v10h-20v-10h20M435.41,146.93h-22v12h22v-12h0Z"/>
  </g>
  <g>
    <rect class="cls-6" x="443.91" y="21.43" width="21" height="11"/>
    <path class="cls-2" d="M464.41,21.93v10h-20v-10h20M465.41,20.93h-22v12h22v-12h0Z"/>
  </g>
  <g>
    <rect class="cls-6" x="443.91" y="39.43" width="21" height="11"/>
    <path class="cls-2" d="M464.41,39.93v10h-20v-10h20M465.41,38.93h-22v12h22v-12h0Z"/>
  </g>
  <g>
    <rect class="cls-6" x="443.91" y="57.43" width="21" height="11"/>
    <path class="cls-2" d="M464.41,57.93v10h-20v-10h20M465.41,56.93h-22v12h22v-12h0Z"/>
  </g>
  <g>
    <rect class="cls-6" x="443.91" y="75.43" width="21" height="11"/>
    <path class="cls-2" d="M464.41,75.93v10h-20v-10h20M465.41,74.93h-22v12h22v-12h0Z"/>
  </g>
  <g>
    <rect class="cls-6" x="443.91" y="93.43" width="21" height="11"/>
    <path class="cls-2" d="M464.41,93.93v10h-20v-10h20M465.41,92.93h-22v12h22v-12h0Z"/>
  </g>
  <g>
    <rect class="cls-6" x="443.91" y="111.43" width="21" height="11"/>
    <path class="cls-2" d="M464.41,111.93v10h-20v-10h20M465.41,110.93h-22v12h22v-12h0Z"/>
  </g>
  <g>
    <rect class="cls-6" x="443.91" y="129.43" width="21" height="11"/>
    <path class="cls-2" d="M464.41,129.93v10h-20v-10h20M465.41,128.93h-22v12h22v-12h0Z"/>
  </g>
  <g>
    <rect class="cls-6" x="443.91" y="147.43" width="21" height="11"/>
    <path class="cls-2" d="M464.41,147.93v10h-20v-10h20M465.41,146.93h-22v12h22v-12h0Z"/>
  </g>
  <g>
    <rect class="cls-6" x="473.91" y="21.43" width="21" height="11"/>
    <path class="cls-2" d="M494.41,21.93v10h-20v-10h20M495.41,20.93h-22v12h22v-12h0Z"/>
  </g>
  <g>
    <rect class="cls-6" x="473.91" y="39.43" width="21" height="11"/>
    <path class="cls-2" d="M494.41,39.93v10h-20v-10h20M495.41,38.93h-22v12h22v-12h0Z"/>
  </g>
  <g>
    <rect class="cls-10" x="473.91" y="57.43" width="21" height="11"/>
    <path class="cls-2" d="M494.41,57.93v10h-20v-10h20M495.41,56.93h-22v12h22v-12h0Z"/>
  </g>
  <g>
    <rect class="cls-10" x="473.91" y="75.43" width="21" height="11"/>
    <path class="cls-2" d="M494.41,75.93v10h-20v-10h20M495.41,74.93h-22v12h22v-12h0Z"/>
  </g>
  <g>
    <rect class="cls-6" x="473.91" y="93.43" width="21" height="11"/>
    <path class="cls-2" d="M494.41,93.93v10h-20v-10h20M495.41,92.93h-22v12h22v-12h0Z"/>
  </g>
  <g>
    <rect class="cls-6" x="473.91" y="111.43" width="21" height="11"/>
    <path class="cls-2" d="M494.41,111.93v10h-20v-10h20M495.41,110.93h-22v12h22v-12h0Z"/>
  </g>
  <g>
    <rect class="cls-6" x="473.91" y="129.43" width="21" height="11"/>
    <path class="cls-2" d="M494.41,129.93v10h-20v-10h20M495.41,128.93h-22v12h22v-12h0Z"/>
  </g>
  <g>
    <rect class="cls-10" x="473.91" y="147.43" width="21" height="11"/>
    <path class="cls-2" d="M494.41,147.93v10h-20v-10h20M495.41,146.93h-22v12h22v-12h0Z"/>
  </g>
  <g>
    <rect class="cls-10" x="503.91" y="21.43" width="21" height="11"/>
    <path class="cls-2" d="M524.41,21.93v10h-20v-10h20M525.41,20.93h-22v12h22v-12h0Z"/>
  </g>
  <g>
    <rect class="cls-10" x="503.91" y="39.43" width="21" height="11"/>
    <path class="cls-2" d="M524.41,39.93v10h-20v-10h20M525.41,38.93h-22v12h22v-12h0Z"/>
  </g>
  <g>
    <rect class="cls-10" x="503.91" y="57.43" width="21" height="11"/>
    <path class="cls-2" d="M524.41,57.93v10h-20v-10h20M525.41,56.93h-22v12h22v-12h0Z"/>
  </g>
  <g>
    <rect class="cls-10" x="503.91" y="75.43" width="21" height="11"/>
    <path class="cls-2" d="M524.41,75.93v10h-20v-10h20M525.41,74.93h-22v12h22v-12h0Z"/>
  </g>
  <g>
    <rect class="cls-10" x="503.91" y="93.43" width="21" height="11"/>
    <path class="cls-2" d="M524.41,93.93v10h-20v-10h20M525.41,92.93h-22v12h22v-12h0Z"/>
  </g>
  <g>
    <rect class="cls-10" x="503.91" y="111.43" width="21" height="11"/>
    <path class="cls-2" d="M524.41,111.93v10h-20v-10h20M525.41,110.93h-22v12h22v-12h0Z"/>
  </g>
  <g>
    <rect class="cls-10" x="503.91" y="129.43" width="21" height="11"/>
    <path class="cls-2" d="M524.41,129.93v10h-20v-10h20M525.41,128.93h-22v12h22v-12h0Z"/>
  </g>
  <g>
    <rect class="cls-10" x="503.91" y="147.43" width="21" height="11"/>
    <path class="cls-2" d="M524.41,147.93v10h-20v-10h20M525.41,146.93h-22v12h22v-12h0Z"/>
  </g>
  <g>
    <rect class="cls-10" x="533.91" y="21.43" width="21" height="11"/>
    <path class="cls-2" d="M554.41,21.93v10h-20v-10h20M555.41,20.93h-22v12h22v-12h0Z"/>
  </g>
  <g>
    <rect class="cls-10" x="533.91" y="39.43" width="21" height="11"/>
    <path class="cls-2" d="M554.41,39.93v10h-20v-10h20M555.41,38.93h-22v12h22v-12h0Z"/>
  </g>
  <g>
    <rect class="cls-10" x="533.91" y="57.43" width="21" height="11"/>
    <path class="cls-2" d="M554.41,57.93v10h-20v-10h20M555.41,56.93h-22v12h22v-12h0Z"/>
  </g>
  <g>
    <rect class="cls-10" x="533.91" y="75.43" width="21" height="11"/>
    <path class="cls-2" d="M554.41,75.93v10h-20v-10h20M555.41,74.93h-22v12h22v-12h0Z"/>
  </g>
  <g>
    <rect class="cls-10" x="533.91" y="93.43" width="21" height="11"/>
    <path class="cls-2" d="M554.41,93.93v10h-20v-10h20M555.41,92.93h-22v12h22v-12h0Z"/>
  </g>
  <g>
    <rect class="cls-10" x="533.91" y="111.43" width="21" height="11"/>
    <path class="cls-2" d="M554.41,111.93v10h-20v-10h20M555.41,110.93h-22v12h22v-12h0Z"/>
  </g>
  <g>
    <rect class="cls-10" x="533.91" y="129.43" width="21" height="11"/>
    <path class="cls-2" d="M554.41,129.93v10h-20v-10h20M555.41,128.93h-22v12h22v-12h0Z"/>
  </g>
  <g>
    <rect class="cls-10" x="533.91" y="147.43" width="21" height="11"/>
    <path class="cls-2" d="M554.41,147.93v10h-20v-10h20M555.41,146.93h-22v12h22v-12h0Z"/>
  </g>
  <rect class="cls-15" x="257.91" y="11.43" width="303" height="157" rx="8.4" ry="8.4"/>
  <g class="cls-14">
    <text class="cls-13" transform="translate(263.91 8.04)"><tspan x="0" y="0">RAM</tspan></text>
  </g>
  <g>
    <g>
      <g>
        <rect class="cls-4" x="19.9" y="393.54" width="200" height="81" rx="5.77" ry="5.77"/>
        <g>
          <g>
            <g>
              <rect class="cls-9" x="25.45" y="398.78" width="21" height="11"/>
              <path class="cls-2" d="M45.95,399.28v10h-20v-10h20M46.95,398.28h-22v12h22v-12h0Z"/>
            </g>
            <g>
              <rect class="cls-9" x="25.45" y="410.78" width="21" height="11"/>
              <path class="cls-2" d="M45.95,411.28v10h-20v-10h20M46.95,410.28h-22v12h22v-12h0Z"/>
            </g>
            <g>
              <rect class="cls-9" x="25.45" y="422.3" width="21" height="11"/>
              <path class="cls-2" d="M45.95,422.8v10h-20v-10h20M46.95,421.8h-22v12h22v-12h0Z"/>
            </g>
            <g>
              <rect class="cls-9" x="25.45" y="434.3" width="21" height="11"/>
              <path class="cls-2" d="M45.95,434.8v10h-20v-10h20M46.95,433.8h-22v12h22v-12h0Z"/>
            </g>
            <g>
              <rect class="cls-3" x="25.45" y="446.3" width="21" height="11"/>
              <path class="cls-2" d="M45.95,446.8v10h-20v-10h20M46.95,445.8h-22v12h22v-12h0Z"/>
            </g>
            <g>
              <rect class="cls-3" x="25.45" y="458.3" width="21" height="11"/>
              <path class="cls-2" d="M45.95,458.8v10h-20v-10h20M46.95,457.8h-22v12h22v-12h0Z"/>
            </g>
          </g>
          <g>
            <g>
              <rect class="cls-9" x="53.25" y="398.78" width="21" height="11"/>
              <path class="cls-2" d="M73.75,399.28v10h-20v-10h20M74.75,398.28h-22v12h22v-12h0Z"/>
            </g>
            <g>
              <rect class="cls-3" x="53.25" y="410.78" width="21" height="11"/>
              <path class="cls-2" d="M73.75,411.28v10h-20v-10h20M74.75,410.28h-22v12h22v-12h0Z"/>
            </g>
            <g>
              <rect class="cls-9" x="53.25" y="422.3" width="21" height="11"/>
              <path class="cls-2" d="M73.75,422.8v10h-20v-10h20M74.75,421.8h-22v12h22v-12h0Z"/>
            </g>
            <g>
              <rect class="cls-9" x="53.25" y="434.3" width="21" height="11"/>
              <path class="cls-2" d="M73.75,434.8v10h-20v-10h20M74.75,433.8h-22v12h22v-12h0Z"/>
            </g>
            <g>
              <rect class="cls-3" x="53.25" y="446.3" width="21" height="11"/>
              <path class="cls-2" d="M73.75,446.8v10h-20v-10h20M74.75,445.8h-22v12h22v-12h0Z"/>
            </g>
            <g>
              <rect class="cls-9" x="53.25" y="458.3" width="21" height="11"/>
              <path class="cls-2" d="M73.75,458.8v10h-20v-10h20M74.75,457.8h-22v12h22v-12h0Z"/>
            </g>
          </g>
          <g>
            <g>
              <rect class="cls-9" x="80.45" y="398.78" width="21" height="11"/>
              <path class="cls-2" d="M100.95,399.28v10h-20v-10h20M101.95,398.28h-22v12h22v-12h0Z"/>
            </g>
            <g>
              <rect class="cls-9" x="80.45" y="410.78" width="21" height="11"/>
              <path class="cls-2" d="M100.95,411.28v10h-20v-10h20M101.95,410.28h-22v12h22v-12h0Z"/>
            </g>
            <g>
              <rect class="cls-9" x="80.45" y="422.3" width="21" height="11"/>
              <path class="cls-2" d="M100.95,422.8v10h-20v-10h20M101.95,421.8h-22v12h22v-12h0Z"/>
            </g>
            <g>
              <rect class="cls-9" x="80.45" y="434.3" width="21" height="11"/>
              <path class="cls-2" d="M100.95,434.8v10h-20v-10h20M101.95,433.8h-22v12h22v-12h0Z"/>
            </g>
            <g>
              <rect class="cls-9" x="80.45" y="446.3" width="21" height="11"/>
              <path class="cls-2" d="M100.95,446.8v10h-20v-10h20M101.95,445.8h-22v12h22v-12h0Z"/>
            </g>
            <g>
              <rect class="cls-9" x="80.45" y="458.3" width="21" height="11"/>
              <path class="cls-2" d="M100.95,458.8v10h-20v-10h20M101.95,457.8h-22v12h22v-12h0Z"/>
            </g>
          </g>
          <g>
            <g>
              <rect class="cls-3" x="109.25" y="398.78" width="21" height="11"/>
              <path class="cls-2" d="M129.75,399.28v10h-20v-10h20M130.75,398.28h-22v12h22v-12h0Z"/>
            </g>
            <g>
              <rect class="cls-3" x="109.25" y="410.78" width="21" height="11"/>
              <path class="cls-2" d="M129.75,411.28v10h-20v-10h20M130.75,410.28h-22v12h22v-12h0Z"/>
            </g>
            <g>
              <rect class="cls-9" x="109.25" y="422.3" width="21" height="11"/>
              <path class="cls-2" d="M129.75,422.8v10h-20v-10h20M130.75,421.8h-22v12h22v-12h0Z"/>
            </g>
            <g>
              <rect class="cls-9" x="109.25" y="434.3" width="21" height="11"/>
              <path class="cls-2" d="M129.75,434.8v10h-20v-10h20M130.75,433.8h-22v12h22v-12h0Z"/>
            </g>
            <g>
              <rect class="cls-9" x="109.25" y="446.3" width="21" height="11"/>
              <path class="cls-2" d="M129.75,446.8v10h-20v-10h20M130.75,445.8h-22v12h22v-12h0Z"/>
            </g>
            <g>
              <rect class="cls-9" x="109.25" y="458.3" width="21" height="11"/>
              <path class="cls-2" d="M129.75,458.8v10h-20v-10h20M130.75,457.8h-22v12h22v-12h0Z"/>
            </g>
          </g>
          <g>
            <g>
              <rect class="cls-9" x="137.45" y="398.78" width="21" height="11"/>
              <path class="cls-2" d="M157.95,399.28v10h-20v-10h20M158.95,398.28h-22v12h22v-12h0Z"/>
            </g>
            <g>
              <rect class="cls-3" x="137.45" y="410.78" width="21" height="11"/>
              <path class="cls-2" d="M157.95,411.28v10h-20v-10h20M158.95,410.28h-22v12h22v-12h0Z"/>
            </g>
            <g>
              <rect class="cls-3" x="137.45" y="422.3" width="21" height="11"/>
              <path class="cls-2" d="M157.95,422.8v10h-20v-10h20M158.95,421.8h-22v12h22v-12h0Z"/>
            </g>
            <g>
              <rect class="cls-9" x="137.45" y="434.3" width="21" height="11"/>
              <path class="cls-2" d="M157.95,434.8v10h-20v-10h20M158.95,433.8h-22v12h22v-12h0Z"/>
            </g>
            <g>
              <rect class="cls-9" x="137.45" y="446.3" width="21" height="11"/>
              <path class="cls-2" d="M157.95,446.8v10h-20v-10h20M158.95,445.8h-22v12h22v-12h0Z"/>
            </g>
            <g>
              <rect class="cls-9" x="137.45" y="458.3" width="21" height="11"/>
              <path class="cls-2" d="M157.95,458.8v10h-20v-10h20M158.95,457.8h-22v12h22v-12h0Z"/>
            </g>
          </g>
          <g>
            <g>
              <rect class="cls-9" x="165.25" y="398.78" width="21" height="11"/>
              <path class="cls-2" d="M185.75,399.28v10h-20v-10h20M186.75,398.28h-22v12h22v-12h0Z"/>
            </g>
            <g>
              <rect class="cls-9" x="165.25" y="410.78" width="21" height="11"/>
              <path class="cls-2" d="M185.75,411.28v10h-20v-10h20M186.75,410.28h-22v12h22v-12h0Z"/>
            </g>
            <g>
              <rect class="cls-3" x="165.25" y="422.3" width="21" height="11"/>
              <path class="cls-2" d="M185.75,422.8v10h-20v-10h20M186.75,421.8h-22v12h22v-12h0Z"/>
            </g>
            <g>
              <rect class="cls-3" x="165.25" y="434.3" width="21" height="11"/>
              <path class="cls-2" d="M185.75,434.8v10h-20v-10h20M186.75,433.8h-22v12h22v-12h0Z"/>
            </g>
            <g>
              <rect class="cls-3" x="165.25" y="446.3" width="21" height="11"/>
              <path class="cls-2" d="M185.75,446.8v10h-20v-10h20M186.75,445.8h-22v12h22v-12h0Z"/>
            </g>
            <g>
              <rect class="cls-3" x="165.25" y="458.3" width="21" height="11"/>
              <path class="cls-2" d="M185.75,458.8v10h-20v-10h20M186.75,457.8h-22v12h22v-12h0Z"/>
            </g>
          </g>
          <g>
            <g>
              <rect class="cls-9" x="193.35" y="398.78" width="21" height="11"/>
              <path class="cls-2" d="M213.85,399.28v10h-20v-10h20M214.85,398.28h-22v12h22v-12h0Z"/>
            </g>
            <g>
              <rect class="cls-9" x="193.35" y="410.78" width="21" height="11"/>
              <path class="cls-2" d="M213.85,411.28v10h-20v-10h20M214.85,410.28h-22v12h22v-12h0Z"/>
            </g>
            <g>
              <rect class="cls-9" x="193.35" y="422.3" width="21" height="11"/>
              <path class="cls-2" d="M213.85,422.8v10h-20v-10h20M214.85,421.8h-22v12h22v-12h0Z"/>
            </g>
            <g>
              <rect class="cls-9" x="193.35" y="434.3" width="21" height="11"/>
              <path class="cls-2" d="M213.85,434.8v10h-20v-10h20M214.85,433.8h-22v12h22v-12h0Z"/>
            </g>
            <g>
              <rect class="cls-9" x="193.35" y="446.3" width="21" height="11"/>
              <path class="cls-2" d="M213.85,446.8v10h-20v-10h20M214.85,445.8h-22v12h22v-12h0Z"/>
            </g>
            <g>
              <rect class="cls-9" x="193.35" y="458.3" width="21" height="11"/>
              <path class="cls-2" d="M213.85,458.8v10h-20v-10h20M214.85,457.8h-22v12h22v-12h0Z"/>
            </g>
          </g>
        </g>
      </g>
      <g class="cls-14">
        <text class="cls-12" transform="translate(24.56 390.3)"><tspan x="0" y="0">Execution Core</tspan></text>
      </g>
    </g>
    <g>
      <g>
        <rect class="cls-7" x="59.9" y="286.67" width="120" height="80" rx="8.03" ry="8.03"/>
        <g>
          <g>
            <g>
              <rect class="cls-3" x="68.4" y="295.67" width="21" height="11"/>
              <path class="cls-2" d="M88.9,296.17v10h-20v-10h20M89.9,295.17h-22v12h22v-12h0Z"/>
            </g>
            <g>
              <rect class="cls-3" x="68.4" y="312.67" width="21" height="11"/>
              <path class="cls-2" d="M88.9,313.17v10h-20v-10h20M89.9,312.17h-22v12h22v-12h0Z"/>
            </g>
            <g>
              <rect class="cls-3" x="68.4" y="329.67" width="21" height="11"/>
              <path class="cls-2" d="M88.9,330.17v10h-20v-10h20M89.9,329.17h-22v12h22v-12h0Z"/>
            </g>
            <g>
              <rect class="cls-1" x="68.4" y="346.67" width="21" height="11"/>
              <path class="cls-2" d="M88.9,347.17v10h-20v-10h20M89.9,346.17h-22v12h22v-12h0Z"/>
            </g>
          </g>
          <g>
            <g>
              <rect class="cls-3" x="96.4" y="295.67" width="21" height="11"/>
              <path class="cls-2" d="M116.9,296.17v10h-20v-10h20M117.9,295.17h-22v12h22v-12h0Z"/>
            </g>
            <g>
              <rect class="cls-1" x="96.4" y="312.67" width="21" height="11"/>
              <path class="cls-2" d="M116.9,313.17v10h-20v-10h20M117.9,312.17h-22v12h22v-12h0Z"/>
            </g>
            <g>
              <rect class="cls-1" x="96.4" y="329.67" width="21" height="11"/>
              <path class="cls-2" d="M116.9,330.17v10h-20v-10h20M117.9,329.17h-22v12h22v-12h0Z"/>
            </g>
            <g>
              <rect class="cls-1" x="96.4" y="346.67" width="21" height="11"/>
              <path class="cls-2" d="M116.9,347.17v10h-20v-10h20M117.9,346.17h-22v12h22v-12h0Z"/>
            </g>
          </g>
          <g>
            <g>
              <rect class="cls-1" x="123.4" y="295.67" width="21" height="11"/>
              <path class="cls-2" d="M143.9,296.17v10h-20v-10h20M144.9,295.17h-22v12h22v-12h0Z"/>
            </g>
            <g>
              <rect class="cls-3" x="123.4" y="312.67" width="21" height="11"/>
              <path class="cls-2" d="M143.9,313.17v10h-20v-10h20M144.9,312.17h-22v12h22v-12h0Z"/>
            </g>
            <g>
              <rect class="cls-1" x="123.4" y="329.67" width="21" height="11"/>
              <path class="cls-2" d="M143.9,330.17v10h-20v-10h20M144.9,329.17h-22v12h22v-12h0Z"/>
            </g>
            <g>
              <rect class="cls-3" x="123.4" y="346.67" width="21" height="11"/>
              <path class="cls-2" d="M143.9,347.17v10h-20v-10h20M144.9,346.17h-22v12h22v-12h0Z"/>
            </g>
          </g>
          <g>
            <g>
              <rect class="cls-1" x="150.4" y="295.67" width="21" height="11"/>
              <path class="cls-2" d="M170.9,296.17v10h-20v-10h20M171.9,295.17h-22v12h22v-12h0Z"/>
            </g>
            <g>
              <rect class="cls-3" x="150.4" y="312.67" width="21" height="11"/>
              <path class="cls-2" d="M170.9,313.17v10h-20v-10h20M171.9,312.17h-22v12h22v-12h0Z"/>
            </g>
            <g>
              <rect class="cls-3" x="150.4" y="329.67" width="21" height="11"/>
              <path class="cls-2" d="M170.9,330.17v10h-20v-10h20M171.9,329.17h-22v12h22v-12h0Z"/>
            </g>
            <g>
              <rect class="cls-3" x="150.4" y="346.67" width="21" height="11"/>
              <path class="cls-2" d="M170.9,347.17v10h-20v-10h20M171.9,346.17h-22v12h22v-12h0Z"/>
            </g>
          </g>
        </g>
      </g>
      <g class="cls-14">
        <text class="cls-12" transform="translate(185.38 298.59)"><tspan x="0" y="0">Front End</tspan></text>
      </g>
    </g>
    <rect class="cls-15" x=".5" y="269.51" width="238.81" height="219.81" rx="7.85" ry="7.85"/>
    <g class="cls-14">
      <text class="cls-11" transform="translate(10.57 265.91)"><tspan x="0" y="0">CPU</tspan></text>
    </g>
  </g>
  <g>
    <rect class="cls-4" x="594.4" y="387.45" width="200" height="81" rx="5.77" ry="5.77"/>
    <g>
      <rect class="cls-16" x="599.95" y="392.69" width="21" height="11"/>
      <path class="cls-16" d="M620.45,393.19v10h-20v-10h20M621.45,392.19h-22v12h22v-12h0Z"/>
    </g>
    <g>
      <rect class="cls-9" x="599.95" y="404.69" width="21" height="11"/>
      <path class="cls-2" d="M620.45,405.19v10h-20v-10h20M621.45,404.19h-22v12h22v-12h0Z"/>
    </g>
    <g>
      <rect class="cls-9" x="599.95" y="416.21" width="21" height="11"/>
      <path class="cls-2" d="M620.45,416.71v10h-20v-10h20M621.45,415.71h-22v12h22v-12h0Z"/>
    </g>
    <g>
      <rect class="cls-9" x="599.95" y="428.21" width="21" height="11"/>
      <path class="cls-2" d="M620.45,428.71v10h-20v-10h20M621.45,427.71h-22v12h22v-12h0Z"/>
    </g>
    <g>
      <rect class="cls-9" x="627.75" y="392.69" width="21" height="11"/>
      <path class="cls-2" d="M648.25,393.19v10h-20v-10h20M649.25,392.19h-22v12h22v-12h0Z"/>
    </g>
    <g>
      <rect class="cls-9" x="627.75" y="416.21" width="21" height="11"/>
      <path class="cls-2" d="M648.25,416.71v10h-20v-10h20M649.25,415.71h-22v12h22v-12h0Z"/>
    </g>
    <g>
      <rect class="cls-9" x="627.75" y="428.21" width="21" height="11"/>
      <path class="cls-2" d="M648.25,428.71v10h-20v-10h20M649.25,427.71h-22v12h22v-12h0Z"/>
    </g>
    <g>
      <rect class="cls-9" x="627.75" y="452.21" width="21" height="11"/>
      <path class="cls-2" d="M648.25,452.71v10h-20v-10h20M649.25,451.71h-22v12h22v-12h0Z"/>
    </g>
    <g>
      <rect class="cls-16" x="654.95" y="392.69" width="21" height="11"/>
      <path class="cls-16" d="M675.45,393.19v10h-20v-10h20M676.45,392.19h-22v12h22v-12h0Z"/>
    </g>
    <g>
      <rect class="cls-16" x="654.95" y="404.69" width="21" height="11"/>
      <path class="cls-16" d="M675.45,405.19v10h-20v-10h20M676.45,404.19h-22v12h22v-12h0Z"/>
    </g>
    <g>
      <rect class="cls-9" x="627.95" y="404.69" width="21" height="11"/>
      <path class="cls-2" d="M648.45,405.19v10h-20v-10h20M649.45,404.19h-22v12h22v-12h0Z"/>
    </g>
    <g>
      <rect class="cls-16" x="654.95" y="416.21" width="21" height="11"/>
      <path class="cls-16" d="M675.45,416.71v10h-20v-10h20M676.45,415.71h-22v12h22v-12h0Z"/>
    </g>
    <g>
      <rect class="cls-16" x="654.95" y="428.21" width="21" height="11"/>
      <path class="cls-16" d="M675.45,428.71v10h-20v-10h20M676.45,427.71h-22v12h22v-12h0Z"/>
    </g>
    <g>
      <rect class="cls-16" x="654.95" y="440.21" width="21" height="11"/>
      <path class="cls-16" d="M675.45,440.71v10h-20v-10h20M676.45,439.71h-22v12h22v-12h0Z"/>
    </g>
    <g>
      <rect class="cls-9" x="627.95" y="440.21" width="21" height="11"/>
      <path class="cls-2" d="M648.45,440.71v10h-20v-10h20M649.45,439.71h-22v12h22v-12h0Z"/>
    </g>
    <g>
      <rect class="cls-9" x="599.75" y="452.21" width="21" height="11"/>
      <path class="cls-2" d="M620.25,452.71v10h-20v-10h20M621.25,451.71h-22v12h22v-12h0Z"/>
    </g>
    <g>
      <rect class="cls-9" x="599.95" y="440.21" width="21" height="11"/>
      <path class="cls-2" d="M620.45,440.71v10h-20v-10h20M621.45,439.71h-22v12h22v-12h0Z"/>
    </g>
    <g>
      <rect class="cls-9" x="654.95" y="452.21" width="21" height="11"/>
      <path class="cls-2" d="M675.45,452.71v10h-20v-10h20M676.45,451.71h-22v12h22v-12h0Z"/>
    </g>
    <g>
      <rect class="cls-16" x="683.75" y="416.21" width="21" height="11"/>
      <path class="cls-16" d="M704.25,416.71v10h-20v-10h20M705.25,415.71h-22v12h22v-12h0Z"/>
    </g>
    <g>
      <rect class="cls-16" x="683.75" y="428.21" width="21" height="11"/>
      <path class="cls-16" d="M704.25,428.71v10h-20v-10h20M705.25,427.71h-22v12h22v-12h0Z"/>
    </g>
    <g>
      <rect class="cls-16" x="683.75" y="440.21" width="21" height="11"/>
      <path class="cls-16" d="M704.25,440.71v10h-20v-10h20M705.25,439.71h-22v12h22v-12h0Z"/>
    </g>
    <g>
      <rect class="cls-9" x="683.75" y="452.21" width="21" height="11"/>
      <path class="cls-2" d="M704.25,452.71v10h-20v-10h20M705.25,451.71h-22v12h22v-12h0Z"/>
    </g>
    <g>
      <rect class="cls-9" x="711.95" y="392.69" width="21" height="11"/>
      <path class="cls-2" d="M732.45,393.19v10h-20v-10h20M733.45,392.19h-22v12h22v-12h0Z"/>
    </g>
    <g>
      <rect class="cls-16" x="711.95" y="428.21" width="21" height="11"/>
      <path class="cls-16" d="M732.45,428.71v10h-20v-10h20M733.45,427.71h-22v12h22v-12h0Z"/>
    </g>
    <g>
      <rect class="cls-16" x="711.95" y="440.21" width="21" height="11"/>
      <path class="cls-16" d="M732.45,440.71v10h-20v-10h20M733.45,439.71h-22v12h22v-12h0Z"/>
    </g>
    <g>
      <rect class="cls-16" x="711.95" y="452.21" width="21" height="11"/>
      <path class="cls-16" d="M732.45,452.71v10h-20v-10h20M733.45,451.71h-22v12h22v-12h0Z"/>
    </g>
    <g>
      <rect class="cls-16" x="739.75" y="392.69" width="21" height="11"/>
      <path class="cls-16" d="M760.25,393.19v10h-20v-10h20M761.25,392.19h-22v12h22v-12h0Z"/>
    </g>
    <g>
      <rect class="cls-16" x="739.75" y="404.69" width="21" height="11"/>
      <path class="cls-16" d="M760.25,405.19v10h-20v-10h20M761.25,404.19h-22v12h22v-12h0Z"/>
    </g>
    <g>
      <rect class="cls-9" x="739.75" y="416.69" width="21" height="11"/>
      <path class="cls-2" d="M760.25,417.19v10h-20v-10h20M761.25,416.19h-22v12h22v-12h0Z"/>
    </g>
    <g>
      <rect class="cls-9" x="711.75" y="404.69" width="21" height="11"/>
      <path class="cls-2" d="M732.25,405.19v10h-20v-10h20M733.25,404.19h-22v12h22v-12h0Z"/>
    </g>
    <g>
      <rect class="cls-9" x="683.95" y="392.69" width="21" height="11"/>
      <path class="cls-2" d="M704.45,393.19v10h-20v-10h20M705.45,392.19h-22v12h22v-12h0Z"/>
    </g>
    <g>
      <rect class="cls-9" x="683.75" y="404.69" width="21" height="11"/>
      <path class="cls-2" d="M704.25,405.19v10h-20v-10h20M705.25,404.19h-22v12h22v-12h0Z"/>
    </g>
    <g>
      <rect class="cls-9" x="711.75" y="416.69" width="21" height="11"/>
      <path class="cls-2" d="M732.25,417.19v10h-20v-10h20M733.25,416.19h-22v12h22v-12h0Z"/>
    </g>
    <g>
      <rect class="cls-9" x="739.75" y="428.69" width="21" height="11"/>
      <path class="cls-2" d="M760.25,429.19v10h-20v-10h20M761.25,428.19h-22v12h22v-12h0Z"/>
    </g>
    <g>
      <rect class="cls-9" x="739.75" y="440.69" width="21" height="11"/>
      <path class="cls-2" d="M760.25,441.19v10h-20v-10h20M761.25,440.19h-22v12h22v-12h0Z"/>
    </g>
    <g>
      <rect class="cls-9" x="739.75" y="452.69" width="21" height="11"/>
      <path class="cls-2" d="M760.25,453.19v10h-20v-10h20M761.25,452.19h-22v12h22v-12h0Z"/>
    </g>
    <g>
      <rect class="cls-9" x="767.85" y="392.69" width="21" height="11"/>
      <path class="cls-2" d="M788.35,393.19v10h-20v-10h20M789.35,392.19h-22v12h22v-12h0Z"/>
    </g>
    <g>
      <rect class="cls-16" x="767.85" y="404.69" width="21" height="11"/>
      <path class="cls-16" d="M788.35,405.19v10h-20v-10h20M789.35,404.19h-22v12h22v-12h0Z"/>
    </g>
    <g>
      <rect class="cls-16" x="767.85" y="416.21" width="21" height="11"/>
      <path class="cls-16" d="M788.35,416.71v10h-20v-10h20M789.35,415.71h-22v12h22v-12h0Z"/>
    </g>
    <g>
      <rect class="cls-16" x="767.85" y="428.21" width="21" height="11"/>
      <path class="cls-16" d="M788.35,428.71v10h-20v-10h20M789.35,427.71h-22v12h22v-12h0Z"/>
    </g>
    <g>
      <rect class="cls-16" x="767.85" y="440.21" width="21" height="11"/>
      <path class="cls-16" d="M788.35,440.71v10h-20v-10h20M789.35,439.71h-22v12h22v-12h0Z"/>
    </g>
    <g>
      <rect class="cls-16" x="767.85" y="452.21" width="21" height="11"/>
      <path class="cls-16" d="M788.35,452.71v10h-20v-10h20M789.35,451.71h-22v12h22v-12h0Z"/>
    </g>
    <g class="cls-14">
      <text class="cls-12" transform="translate(599.06 384.21)"><tspan x="0" y="0">Execution Core</tspan></text>
    </g>
    <rect class="cls-7" x="634.4" y="280.58" width="120" height="80" rx="8.03" ry="8.03"/>
    <g>
      <rect class="cls-1" x="642.9" y="323.58" width="21" height="11"/>
      <path class="cls-2" d="M663.4,324.08v10h-20v-10h20M664.4,323.08h-22v12h22v-12h0Z"/>
    </g>
    <g>
      <rect class="cls-1" x="642.9" y="306.58" width="21" height="11"/>
      <path class="cls-2" d="M663.4,307.08v10h-20v-10h20M664.4,306.08h-22v12h22v-12h0Z"/>
    </g>
    <g>
      <rect class="cls-1" x="642.9" y="289.58" width="21" height="11"/>
      <path class="cls-2" d="M663.4,290.08v10h-20v-10h20M664.4,289.08h-22v12h22v-12h0Z"/>
    </g>
    <g>
      <rect class="cls-1" x="670.78" y="289.58" width="21" height="11"/>
      <path class="cls-2" d="M691.28,290.08v10h-20v-10h20M692.28,289.08h-22v12h22v-12h0Z"/>
    </g>
    <g>
      <rect class="cls-1" x="697.9" y="306.58" width="21" height="11"/>
      <path class="cls-2" d="M718.4,307.08v10h-20v-10h20M719.4,306.08h-22v12h22v-12h0Z"/>
    </g>
    <g>
      <rect class="cls-1" x="724.65" y="306.58" width="21" height="11"/>
      <path class="cls-2" d="M745.15,307.08v10h-20v-10h20M746.15,306.08h-22v12h22v-12h0Z"/>
    </g>
    <g>
      <rect class="cls-1" x="724.65" y="323.58" width="21" height="11"/>
      <path class="cls-2" d="M745.15,324.08v10h-20v-10h20M746.15,323.08h-22v12h22v-12h0Z"/>
    </g>
    <g>
      <rect class="cls-1" x="724.65" y="340.58" width="21" height="11"/>
      <path class="cls-2" d="M745.15,341.08v10h-20v-10h20M746.15,340.08h-22v12h22v-12h0Z"/>
    </g>
    <g>
      <rect class="cls-1" x="697.9" y="340.67" width="21" height="11"/>
      <path class="cls-2" d="M718.4,341.17v10h-20v-10h20M719.4,340.17h-22v12h22v-12h0Z"/>
    </g>
    <g class="cls-14">
      <text class="cls-12" transform="translate(759.88 292.5)"><tspan x="0" y="0">Front End</tspan></text>
    </g>
    <rect class="cls-15" x="575" y="263.42" width="238.81" height="219.81" rx="7.85" ry="7.85"/>
    <g class="cls-14">
      <text class="cls-11" transform="translate(585.07 259.82)"><tspan x="0" y="0">CPU</tspan></text>
    </g>
    <g>
      <rect class="cls-6" x="670.4" y="306.58" width="21" height="11"/>
      <path class="cls-2" d="M690.9,307.08v10h-20v-10h20M691.9,306.08h-22v12h22v-12h0Z"/>
    </g>
    <g>
      <rect class="cls-6" x="670.4" y="324.17" width="21" height="11"/>
      <path class="cls-2" d="M690.9,324.67v10h-20v-10h20M691.9,323.67h-22v12h22v-12h0Z"/>
    </g>
    <g>
      <rect class="cls-6" x="642.9" y="342.68" width="21" height="11"/>
      <path class="cls-2" d="M663.4,343.18v10h-20v-10h20M664.4,342.18h-22v12h22v-12h0Z"/>
    </g>
    <g>
      <rect class="cls-6" x="670.4" y="341.17" width="21" height="11"/>
      <path class="cls-2" d="M690.9,341.67v10h-20v-10h20M691.9,340.67h-22v12h22v-12h0Z"/>
    </g>
    <g>
      <rect class="cls-6" x="697.53" y="323.62" width="21" height="11"/>
      <path class="cls-2" d="M718.03,324.12v10h-20v-10h20M719.03,323.12h-22v12h22v-12h0Z"/>
    </g>
    <g>
      <rect class="cls-6" x="697.9" y="289.58" width="21" height="11"/>
      <path class="cls-2" d="M718.4,290.08v10h-20v-10h20M719.4,289.08h-22v12h22v-12h0Z"/>
    </g>
    <g>
      <rect class="cls-6" x="724.65" y="290.17" width="21" height="11"/>
      <path class="cls-2" d="M745.15,290.67v10h-20v-10h20M746.15,289.67h-22v12h22v-12h0Z"/>
    </g>
  </g>
</svg>