<?xml version="1.0" encoding="UTF-8"?>
<svg id="_Слой_1" data-name="Слой 1" xmlns="http://www.w3.org/2000/svg" viewBox="0 0 857 400.63">
  <defs>
    <style>
      .cls-1 {
        fill: #b3b3b3;
      }

      .cls-1, .cls-2, .cls-3, .cls-4 {
        stroke: #000;
        stroke-miterlimit: 10;
      }

      .cls-2 {
        fill: #39b54a;
      }

      .cls-5 {
        font-size: 26.48px;
      }

      .cls-5, .cls-6, .cls-7, .cls-8 {
        fill: #000;
        font-family: CascadiaMono-Roman, 'Cascadia Mono';
        font-variation-settings: 'wght' 400;
      }

      .cls-6 {
        font-size: 17.16px;
      }

      .cls-7 {
        font-size: 47.56px;
      }

      .cls-8 {
        font-size: 35.11px;
      }

      .cls-3 {
        fill: #29abe2;
      }

      .cls-4 {
        fill: #fcdd21;
      }
    </style>
  </defs>
  <polygon class="cls-3" points="658.1 204.14 581.81 180.58 581.81 193.1 304 193.1 304 215.19 581.81 215.19 581.81 227.71 658.1 204.14"/>
  <polygon class="cls-4" points="658 24.19 559.11 .63 559.11 13.15 199 13.15 199 35.23 559.11 35.23 559.11 47.75 658 24.19"/>
  <polygon class="cls-2" points="199 124.19 297.89 147.75 297.89 135.23 658 135.23 658 113.15 297.89 113.15 297.89 100.63 199 124.19"/>
  <polygon class="cls-3" points="199 204.19 278.72 227.75 278.72 215.23 569 215.23 569 193.15 278.72 193.15 278.72 180.63 199 204.19"/>
  <polygon class="cls-3" points="412.5 215.63 388.94 239.99 401.46 239.99 401.46 328.69 423.54 328.69 423.54 239.99 436.06 239.99 412.5 215.63"/>
  <polygon class="cls-2" points="513.67 365.1 577.5 354.93 571.16 344.14 760.12 233.13 748.93 214.09 559.97 325.1 553.63 314.3 513.67 365.1"/>
  <g>
    <g>
      <rect class="cls-4" x=".5" y="282.63" width="190.5" height="31.5"/>
      <text class="cls-5" transform="translate(.92 307.11) scale(.86 1)"><tspan x="0" y="0">первый этап</tspan></text>
    </g>
    <rect class="cls-2" x=".5" y="323.63" width="190.5" height="31.5"/>
    <text class="cls-5" transform="translate(.92 348.11) scale(.86 1)"><tspan x="0" y="0">воторой этап</tspan></text>
    <g>
      <rect class="cls-3" x=".5" y="364.63" width="190.5" height="31.5"/>
      <text class="cls-5" transform="translate(.92 389.11) scale(.86 1)"><tspan x="0" y="0">третий этап</tspan></text>
    </g>
  </g>
  <g>
    <rect class="cls-1" x="307.75" y="325.89" width="198" height="73"/>
    <text class="cls-7" transform="translate(325.75 372.18) scale(.97 1)"><tspan x="0" y="0">Память</tspan></text>
  </g>
  <g>
    <rect class="cls-1" x="1.09" y=".88" width="198" height="233"/>
    <text class="cls-8" transform="translate(10.41 124.61) scale(.97 1)"><tspan x="0" y="0">Процессор</tspan></text>
  </g>
  <g>
    <rect class="cls-1" x="658.5" y=".88" width="198" height="233"/>
    <text class="cls-7" transform="translate(717 127.17) scale(.97 1)"><tspan x="0" y="0">Кэш</tspan></text>
  </g>
  <text class="cls-6" transform="translate(355.03 28.17) scale(1.16 1)"><tspan x="0" y="0">Запрос</tspan></text>
  <text class="cls-6" transform="translate(329.03 127.17) scale(1.16 1)"><tspan x="0" y="0">Быстрый ответ (попадание)</tspan></text>
  <text class="cls-6" transform="translate(299.03 208.17) scale(1.16 1)"><tspan x="0" y="0">Медленный ответ (промах)</tspan></text>
  <text class="cls-6" transform="translate(545.16 355.09) rotate(-31.85) scale(1.16 1)"><tspan x="0" y="0">Запрос при промахе</tspan></text>
</svg>