<?xml version="1.0" encoding="UTF-8"?>
<svg id="_Слой_1" data-name="Слой 1" xmlns="http://www.w3.org/2000/svg" viewBox="0 0 865.77 433.97">
  <defs>
    <style>
      .cls-1 {
        stroke: blue;
      }

      .cls-1, .cls-2, .cls-3, .cls-4 {
        stroke-miterlimit: 10;
      }

      .cls-1, .cls-2, .cls-5 {
        fill: #6a92ff;
      }

      .cls-2, .cls-3 {
        stroke: #006837;
      }

      .cls-6 {
        fill: #6a65ff;
      }

      .cls-6, .cls-5 {
        stroke-width: 0px;
      }

      .cls-7 {
        font-size: 24px;
      }

      .cls-7, .cls-8, .cls-9 {
        font-family: CascadiaMono-Roman, 'Cascadia Mono';
        font-variation-settings: 'wght' 400;
      }

      .cls-7, .cls-9 {
        fill: #000;
      }

      .cls-8 {
        fill: #fff;
        font-size: 28.52px;
      }

      .cls-3 {
        fill: #006837;
      }

      .cls-9 {
        font-size: 12.46px;
      }

      .cls-4 {
        fill: #ffc77f;
        stroke: #b46000;
      }
    </style>
  </defs>
  <g>
    <rect class="cls-3" x="141.96" y="267.79" width="4" height="89"/>
    <polygon class="cls-6" points="211.96 43.79 211.96 132.79 195.96 132.79 186.96 132.79 170.96 132.79 170.96 43.79 161.96 43.79 161.96 132.79 161.96 141.79 186.96 141.79 186.96 191.79 195.96 191.79 195.96 141.79 220.96 141.79 220.96 132.79 220.96 43.79 211.96 43.79"/>
    <rect class="cls-3" x="241.96" y="270.79" width="4" height="89"/>
    <g>
      <rect class="cls-5" x="76.46" y="164.29" width="4" height="89" transform="translate(287.24 130.33) rotate(90)"/>
      <rect class="cls-5" x="75.96" y="179.79" width="4" height="89" transform="translate(302.24 146.33) rotate(90)"/>
      <rect class="cls-5" x="76.96" y="194.79" width="4" height="89" transform="translate(318.24 160.33) rotate(90)"/>
    </g>
    <g>
      <g>
        <rect class="cls-1" x="59.95" y="17.68" width="118" height="70.89"/>
        <text class="cls-8" transform="translate(73.43 58.99) scale(.61 1)"><tspan x="0" y="0">процессор</tspan></text>
      </g>
      <g>
        <rect class="cls-1" x="205.95" y="17.68" width="118" height="70.89"/>
        <text class="cls-8" transform="translate(219.43 58.99) scale(.61 1)"><tspan x="0" y="0">процессор</tspan></text>
      </g>
    </g>
    <g>
      <rect class="cls-4" x="123.12" y="176.27" width="150.33" height="96" rx="15.23" ry="15.23"/>
      <text class="cls-7" transform="translate(134.76 200.41) scale(.65 1)"><tspan x="0" y="0">чипсет</tspan><tspan x="0" y="28.8">с контроллером</tspan><tspan x="0" y="57.6">памяти</tspan></text>
    </g>
    <g>
      <g>
        <rect class="cls-4" x="27.14" y="170.29" width="10.5" height="102"/>
        <rect class="cls-4" x="10.14" y="170.29" width="10.5" height="102"/>
      </g>
      <text class="cls-9" transform="translate(0 157.87) scale(1.09 1)"><tspan x="0" y="0">ПАМЯТЬ</tspan></text>
    </g>
    <g>
      <g>
        <rect class="cls-2" x="75.96" y="356.79" width="107" height="45"/>
        <polygon class="cls-3" points="207.96 345.79 187.96 345.79 182.96 345.79 182.96 350.79 182.96 412.79 187.96 412.79 187.96 350.79 207.96 350.79 207.96 345.79"/>
      </g>
      <g>
        <rect class="cls-2" x="206.96" y="359.79" width="107" height="45"/>
        <polygon class="cls-3" points="338.96 348.79 318.96 348.79 313.96 348.79 313.96 353.79 313.96 415.79 318.96 415.79 318.96 353.79 338.96 353.79 338.96 348.79"/>
      </g>
    </g>
  </g>
  <g>
    <rect class="cls-3" x="577.96" y="285.47" width="4" height="89"/>
    <rect class="cls-6" x="591.96" y="106.47" width="8" height="89"/>
    <rect class="cls-6" x="660.46" y="104.97" width="8" height="89"/>
    <rect class="cls-6" x="624.96" y="24.47" width="8" height="89" transform="translate(697.92 -559.99) rotate(90)"/>
    <rect class="cls-3" x="677.96" y="288.47" width="4" height="89"/>
    <g>
      <rect class="cls-5" x="477.46" y="10.97" width="4" height="89" transform="translate(534.92 -423.99) rotate(90)"/>
      <rect class="cls-5" x="476.96" y="26.47" width="4" height="89" transform="translate(549.92 -407.99) rotate(90)"/>
      <rect class="cls-5" x="477.96" y="41.47" width="4" height="89" transform="translate(565.92 -393.99) rotate(90)"/>
    </g>
    <g>
      <g>
        <rect class="cls-1" x="495.95" y="35.35" width="118" height="70.89"/>
        <text class="cls-8" transform="translate(509.43 76.67) scale(.61 1)"><tspan x="0" y="0">процессор</tspan></text>
      </g>
      <g>
        <rect class="cls-1" x="641.95" y="35.35" width="118" height="70.89"/>
        <text class="cls-8" transform="translate(655.43 76.67) scale(.61 1)"><tspan x="0" y="0">процессор</tspan></text>
      </g>
    </g>
    <g>
      <rect class="cls-4" x="559.12" y="193.94" width="150.33" height="96" rx="15.23" ry="15.23"/>
      <text class="cls-7" transform="translate(603.76 248.08) scale(.65 1)"><tspan x="0" y="0">чипсет</tspan></text>
    </g>
    <g>
      <g>
        <rect class="cls-4" x="442.14" y="22.97" width="10.5" height="102"/>
        <rect class="cls-4" x="425.14" y="22.97" width="10.5" height="102"/>
      </g>
      <text class="cls-9" transform="translate(415 10.55) scale(1.09 1)"><tspan x="0" y="0">ПАМЯТЬ</tspan></text>
    </g>
    <g>
      <rect class="cls-5" x="802.46" y="12.97" width="4" height="89" transform="translate(861.92 -746.99) rotate(90)"/>
      <rect class="cls-5" x="801.96" y="28.47" width="4" height="89" transform="translate(876.92 -730.99) rotate(90)"/>
      <rect class="cls-5" x="802.96" y="43.47" width="4" height="89" transform="translate(892.92 -716.99) rotate(90)"/>
    </g>
    <g>
      <g>
        <rect class="cls-4" x="845.14" y="22.97" width="10.5" height="102"/>
        <rect class="cls-4" x="828.14" y="22.97" width="10.5" height="102"/>
      </g>
      <text class="cls-9" transform="translate(818 10.55) scale(1.09 1)"><tspan x="0" y="0">ПАМЯТЬ</tspan></text>
    </g>
    <g>
      <g>
        <rect class="cls-2" x="511.96" y="374.47" width="107" height="45"/>
        <polygon class="cls-3" points="643.96 363.47 623.96 363.47 618.96 363.47 618.96 368.47 618.96 430.47 623.96 430.47 623.96 368.47 643.96 368.47 643.96 363.47"/>
      </g>
      <g>
        <rect class="cls-2" x="642.96" y="377.47" width="107" height="45"/>
        <polygon class="cls-3" points="774.96 366.47 754.96 366.47 749.96 366.47 749.96 371.47 749.96 433.47 754.96 433.47 754.96 371.47 774.96 371.47 774.96 366.47"/>
      </g>
    </g>
  </g>
</svg>